# Blender v2.78 (sub 0) OBJ File: 'Mirror.blend'
# www.blender.org
mtllib mirrorblock.mtl
o Circle
v 0.888648 0.633189 0.500000
v 0.888648 0.533189 0.500000
v 0.888648 0.633189 0.600000
v 0.888648 0.533189 0.600000
v 0.991110 0.633189 0.500000
v 0.991110 0.533189 0.500000
v 0.991110 0.633189 0.600000
v 0.991110 0.533189 0.600000
v 0.888648 0.000000 0.500000
v 0.888648 0.000000 0.600000
v 0.991110 0.000000 0.500000
v 0.991110 0.000000 0.600000
v 0.102463 0.633189 0.500000
v 0.102463 0.533189 0.500000
v 0.102463 0.633189 0.600000
v 0.102463 0.533189 0.600000
v -0.000000 0.633189 0.500000
v -0.000000 0.533189 0.500000
v -0.000000 0.633189 0.600000
v -0.000000 0.533189 0.600000
v 0.102463 0.000000 0.500000
v 0.102463 0.000000 0.600000
v -0.000000 0.000000 0.500000
v -0.000000 -0.000000 0.600000
v 0.161091 0.917653 0.516554
v 0.161091 0.248725 0.516554
v 0.830019 0.917653 0.516554
v 0.830019 0.248725 0.516554
v 0.161091 0.917653 0.583446
v 0.161091 0.248725 0.583446
v 0.830019 0.917653 0.583446
v 0.830019 0.248725 0.583446
v 0.863465 0.951099 0.513209
v 0.863465 0.215279 0.513209
v 0.127645 0.215279 0.513209
v 0.127645 0.215279 0.586791
v 0.863465 0.951099 0.586791
v 0.127645 0.951099 0.586791
v 0.127645 0.951099 0.513209
v 0.863465 0.215279 0.586791
vt 0.9375 0.8125
vt 0.9375 0.7500
vt 0.8750 0.7500
vt 0.8750 0.8125
vt 0.8125 0.8125
vt 0.8750 0.8125
vt 0.8750 0.7500
vt 0.8125 0.7500
vt 0.8125 0.3438
vt 0.8125 0.0000
vt 0.7500 0.0000
vt 0.7500 0.3438
vt 0.9375 0.8125
vt 0.9375 0.8750
vt 1.0000 0.8750
vt 1.0000 0.8125
vt 0.7500 0.4062
vt 0.8125 0.4062
vt 1.0000 0.0000
vt 0.9375 0.0000
vt 0.9375 0.0625
vt 1.0000 0.0625
vt 0.8750 0.8125
vt 0.8750 0.8750
vt 0.9375 0.8750
vt 0.9375 0.8125
vt 0.8750 0.4062
vt 0.8125 0.4062
vt 0.9375 0.4062
vt 0.8750 0.4062
vt 0.9375 0.4062
vt 1.0000 0.4062
vt 0.7500 0.8125
vt 0.8125 0.8125
vt 0.8125 0.7500
vt 0.7500 0.7500
vt 1.0000 0.8125
vt 1.0000 0.7500
vt 0.9375 0.7500
vt 0.9375 0.8125
vt 0.9375 0.0625
vt 0.8750 0.0625
vt 0.8750 0.4062
vt 0.9375 0.4062
vt 0.7500 0.8750
vt 0.8125 0.8750
vt 0.9375 0.0000
vt 0.8750 0.0000
vt 0.8750 0.4062
vt 0.8750 0.3438
vt 0.8125 0.3438
vt 0.8125 0.4062
vt 0.8125 0.8750
vt 0.8750 0.8750
vt 0.8750 0.8125
vt 0.8125 0.8125
vt 1.0000 0.4062
vt 0.9375 0.4062
vt 0.8125 0.4062
vt 0.7500 0.4062
vt 0.8750 0.0000
vt 0.8125 0.0000
vt 0.0938 0.5000
vt 0.0938 0.5938
vt 0.0000 0.6875
vt 0.0000 0.4062
vt 0.3125 0.5000
vt 0.0938 0.5000
vt 0.0000 0.4062
vt 0.4062 0.4062
vt 0.3750 0.7188
vt 0.3750 1.0000
vt 0.0000 1.0000
vt 0.0000 0.7188
vt 0.3125 0.5938
vt 0.4062 0.6875
vt 0.3125 0.5938
vt 0.4062 0.6875
vt 0.3750 1.0000
vt 0.0000 1.0000
vt 0.0000 0.7188
vt 0.3750 0.7188
vt 0.1875 0.0000
vt 0.2500 0.0000
vt 0.2500 0.3438
vt 0.1875 0.3438
vt 0.1250 0.0000
vt 0.1875 0.0000
vt 0.1875 0.3438
vt 0.1250 0.3438
vt 0.1250 0.0000
vt 0.1250 0.3438
vt 0.0625 0.3438
vt 0.0625 0.0000
vt 0.0000 0.3438
vt 0.0000 0.0000
vt 0.0625 0.0000
vt 0.0625 0.3438
vt 0.0938 0.5938
vt 0.0000 0.6875
vt 0.3125 0.5000
vt 0.4062 0.4062
vn -1.0000 0.0000 0.0000
vn 1.0000 -0.0000 0.0000
vn 0.0000 -0.0000 1.0000
vn 0.0000 1.0000 0.0000
vn 0.0000 0.0000 -1.0000
vn 0.0000 -1.0000 -0.0000
vn -0.0995 0.0000 -0.9950
vn 0.0995 0.0000 0.9950
vn -0.0000 -0.0995 -0.9950
vn 0.0000 0.0995 0.9950
vn 0.0000 -0.0995 0.9950
vn -0.0000 0.0995 -0.9950
vn 0.0995 0.0000 -0.9950
vn -0.0995 -0.0000 0.9950
usemtl Material
s off
f 1/1/1 2/2/1 4/3/1 3/4/1
f 5/5/2 7/6/2 8/7/2 6/8/2
f 4/9/3 10/10/3 12/11/3 8/12/3
f 3/13/4 7/14/4 5/15/4 1/16/4
f 4/9/3 8/12/3 7/17/3 3/18/3
f 1/19/5 5/20/5 6/21/5 2/22/5
f 9/23/6 11/24/6 12/25/6 10/26/6
f 8/7/2 12/27/2 11/28/2 6/8/2
f 2/2/1 9/29/1 10/30/1 4/3/1
f 6/21/5 11/31/5 9/32/5 2/22/5
f 13/33/2 15/34/2 16/35/2 14/36/2
f 17/37/1 18/38/1 20/39/1 19/40/1
f 16/41/3 20/42/3 24/43/3 22/44/3
f 15/34/4 13/33/4 17/45/4 19/46/4
f 16/41/3 15/47/3 19/48/3 20/42/3
f 13/49/5 14/50/5 18/51/5 17/52/5
f 21/53/6 22/54/6 24/55/6 23/56/6
f 20/39/1 18/38/1 23/57/1 24/58/1
f 14/36/2 16/35/2 22/59/2 21/60/2
f 18/51/5 14/50/5 21/61/5 23/62/5
f 28/63/7 27/64/7 33/65/7 34/66/7
f 30/67/8 29/68/8 38/69/8 36/70/8
f 26/71/5 25/72/5 27/73/5 28/74/5
f 27/64/9 25/75/9 39/76/9 33/65/9
f 32/77/10 30/67/10 36/70/10 40/78/10
f 32/79/3 31/80/3 29/81/3 30/82/3
f 36/83/6 35/84/6 34/85/6 40/86/6
f 39/87/4 38/88/4 37/89/4 33/90/4
f 36/91/1 38/92/1 39/93/1 35/94/1
f 34/95/2 33/96/2 37/97/2 40/98/2
f 29/68/11 31/99/11 37/100/11 38/69/11
f 26/101/12 28/63/12 34/66/12 35/102/12
f 25/75/13 26/101/13 35/102/13 39/76/13
f 31/99/14 32/77/14 40/78/14 37/100/14
